<?xml version="1.0" encoding="UTF-8"?>
<svg id="Layer_2" data-name="Layer 2" xmlns="http://www.w3.org/2000/svg" viewBox="0 0 3742 1070">
  <g id="_ÎÓÈ_1" data-name="—ÎÓÈ_1">
    <g id="_ÎÓÈ_2" data-name="—ÎÓÈ_2">
      <g>
        <path d="m3536.92,1070H205.08c-113.08,0-205.08-92.01-205.08-205.1V205.1C0,92.01,92,0,205.08,0h3331.85c113.08,0,205.08,92.01,205.08,205.1v659.8c0,113.09-92,205.1-205.08,205.1ZM205.08,12C98.61,12,11.99,98.62,11.99,205.1v659.8c0,106.48,86.62,193.11,193.08,193.11h3331.85c106.47,0,193.08-86.63,193.08-193.11V205.1c0-106.48-86.62-193.11-193.08-193.11H205.08Z" fill="#fff"/>
        <g>
          <g>
            <path d="m1165.28,610.02l-34.59,104.74h-44.47l113.14-333.01h51.88l113.64,333.01h-45.95l-35.57-104.74h-118.08Zm109.19-33.6l-32.61-95.85c-7.41-21.74-12.35-41.5-17.29-60.77h-.99c-4.94,19.76-10.38,40.02-16.8,60.28l-32.61,96.34h100.3Zm94.73,141.43h-52.48l-35.57-104.75h-113.64l-34.59,104.75h-51.01l115.24-339.18h56.3l115.74,339.18Zm-48.05-6.18h39.42l-111.53-326.83h-47.46l-111.05,326.83h37.92l34.59-104.75h122.53l35.57,104.75Zm-42.37-132.17h-108.91l33.99-100.42c5.54-17.47,10.86-36.56,16.73-60.04l.58-2.34h5.79l1.5,5.84c4.62,18.05,9.4,36.72,16.32,57.02l34,99.93Zm-100.3-6.18h91.68l-31.22-91.77c-6.2-18.17-10.68-34.98-14.85-51.2-4.94,19.22-9.56,35.51-14.36,50.65l-31.25,92.32Z" fill="#fff"/>
            <path d="m1410.83,553.7c0-30.63-.99-55.34-1.98-78.06h39.03l1.98,41.01h.99c17.79-29.15,45.95-46.44,84.98-46.44,57.81,0,101.28,48.91,101.28,121.54,0,85.97-52.37,128.46-108.7,128.46-31.62,0-59.29-13.83-73.62-37.55h-.99v129.94h-42.98v-258.9Zm42.98,63.74c0,6.42.99,12.35,1.98,17.79,7.9,30.14,34.09,50.89,65.22,50.89,45.95,0,72.63-37.55,72.63-92.39,0-47.92-25.2-88.93-71.15-88.93-29.64,0-57.31,21.25-65.71,53.85-1.48,5.43-2.96,11.86-2.96,17.79v41.01Zm3.09,198.25h-49.16v-261.98c0-30.07-.93-54.02-1.97-77.93l-.14-3.22h45.2l1.73,35.89c19.23-27.08,47.86-41.33,83.27-41.33,29.19,0,55.71,12.3,74.67,34.62,19.15,22.55,29.7,54.52,29.7,90.01,0,40.84-11.78,74.93-34.07,98.58-20.03,21.26-47.63,32.96-77.72,32.96s-55.85-11.87-71.52-32.12v124.52Zm-42.98-6.18h36.81v-129.94h5.82l.9,1.49c13.64,22.58,40.17,36.06,70.97,36.06,52.57,0,105.61-38.77,105.61-125.37,0-34.03-10.03-64.57-28.23-86.01-17.77-20.92-42.62-32.45-69.97-32.45-36.43,0-64.14,15.13-82.35,44.96l-.9,1.48h-5.66l-1.98-41.01h-32.86c.99,22.92,1.84,46.13,1.84,74.98v255.81Zm107.09-120.31c-32.45,0-59.86-21.38-68.2-53.19l-.05-.23c-1.03-5.64-2.03-11.69-2.03-18.34v-41.01c0-6.5,1.64-13.35,3.07-18.6,8.51-33.03,36.76-56.13,68.69-56.13,22.71,0,41.83,9.59,55.29,27.74,12.22,16.48,18.95,39.31,18.95,64.28,0,28.02-6.82,51.76-19.72,68.64-13.42,17.56-32.79,26.84-56,26.84Zm-62.2-54.65c7.66,29,32.64,48.47,62.2,48.47,42.9,0,69.54-34.22,69.54-89.3,0-23.65-6.3-45.17-17.74-60.6-12.25-16.52-29.65-25.25-50.32-25.25-29.11,0-54.91,21.19-62.72,51.54-1.34,4.92-2.87,11.25-2.87,17.02v41.01c0,6.09.94,11.79,1.91,17.12Z" fill="#fff"/>
            <path d="m1691.95,553.7c0-30.63-.99-55.34-1.98-78.06h39.03l1.98,41.01h.99c17.79-29.15,45.95-46.44,84.98-46.44,57.81,0,101.29,48.91,101.29,121.54,0,85.97-52.37,128.46-108.7,128.46-31.62,0-59.29-13.83-73.62-37.55h-.99v129.94h-42.98v-258.9Zm42.98,63.74c0,6.42.99,12.35,1.98,17.79,7.9,30.14,34.09,50.89,65.22,50.89,45.95,0,72.63-37.55,72.63-92.39,0-47.92-25.2-88.93-71.15-88.93-29.64,0-57.31,21.25-65.71,53.85-1.48,5.43-2.96,11.86-2.96,17.79v41.01Zm3.09,198.25h-49.16v-261.98c0-30.07-.93-54.02-1.97-77.93l-.14-3.22h45.2l1.73,35.89c19.23-27.08,47.86-41.33,83.27-41.33,29.19,0,55.71,12.3,74.67,34.62,19.15,22.55,29.7,54.52,29.7,90.01,0,40.84-11.78,74.93-34.07,98.58-20.03,21.26-47.63,32.96-77.72,32.96s-55.85-11.87-71.52-32.12v124.52Zm-42.98-6.18h36.81v-129.94h5.82l.9,1.49c13.64,22.58,40.17,36.06,70.97,36.06,52.57,0,105.61-38.77,105.61-125.37,0-34.03-10.03-64.57-28.23-86.01-17.77-20.92-42.62-32.45-69.97-32.45-36.43,0-64.14,15.13-82.35,44.96l-.9,1.48h-5.66l-1.98-41.01h-32.86c.99,22.92,1.84,46.13,1.84,74.98v255.81Zm107.09-120.31c-32.45,0-59.86-21.38-68.2-53.19l-.05-.23c-1.03-5.64-2.03-11.69-2.03-18.34v-41.01c0-6.5,1.64-13.35,3.07-18.6,8.51-33.03,36.76-56.13,68.69-56.13,22.71,0,41.83,9.59,55.29,27.74,12.22,16.48,18.95,39.31,18.95,64.28,0,28.02-6.82,51.76-19.72,68.64-13.42,17.56-32.79,26.84-56,26.84Zm-62.2-54.65c7.66,29,32.64,48.47,62.2,48.47,42.89,0,69.54-34.22,69.54-89.3,0-23.65-6.3-45.17-17.74-60.6-12.25-16.52-29.65-25.25-50.32-25.25-29.11,0-54.91,21.19-62.72,51.54-1.34,4.92-2.87,11.25-2.87,17.02v41.01c0,6.09.94,11.79,1.91,17.12Z" fill="#fff"/>
            <path d="m2073.35,662.4c19.27,11.86,47.43,21.74,77.08,21.74,43.97,0,69.66-23.22,69.66-56.82,0-31.13-17.79-48.91-62.75-66.21-54.35-19.27-87.95-47.43-87.95-94.37,0-51.88,42.98-90.41,107.71-90.41,34.09,0,58.79,7.9,73.62,16.3l-11.86,35.08c-10.87-5.93-33.1-15.81-63.24-15.81-45.45,0-62.75,27.17-62.75,49.9,0,31.13,20.26,46.44,66.21,64.23,56.33,21.74,84.98,48.91,84.98,97.83,0,51.38-38.04,95.85-116.6,95.85-32.12,0-67.19-9.39-84.98-21.24l10.87-36.07Zm74.11,60.4c-31.32,0-67.78-9.15-86.69-21.76l-1.9-1.27,12.69-42.1,3.42,2.1c21.66,13.33,49.86,21.28,75.46,21.28,41.07,0,66.58-20.59,66.58-53.73,0-29.12-16.47-46.29-60.77-63.32-61.33-21.74-89.93-52.65-89.93-97.25,0-26.29,10.89-50.09,30.66-67.01,20.26-17.33,47.96-26.5,80.13-26.5,39.72,0,64.13,10.47,75.14,16.71l2.22,1.26-13.85,40.98-3.23-1.76c-12.91-7.04-34.1-15.43-61.76-15.43-29.7,0-59.66,14.48-59.66,46.81,0,27.62,15.61,42.53,64.23,61.35,30.32,11.7,50.91,24.26,64.78,39.53,14.92,16.41,22.17,36.42,22.17,61.18,0,27.34-10.6,52.01-29.86,69.48-21.24,19.27-52.3,29.46-89.84,29.46Zm-81.35-25.67c18.5,11.37,52.15,19.5,81.35,19.5,35.97,0,65.6-9.63,85.69-27.85,17.95-16.28,27.83-39.33,27.83-64.91,0-44.68-24.05-72.19-83.01-94.95-44.22-17.12-68.18-32.88-68.18-67.11,0-13.34,5.57-26.35,15.27-35.7,11.75-11.31,29.23-17.29,50.56-17.29,26.76,0,47.76,7.51,61.48,14.48l9.87-29.19c-11.38-5.99-34.07-14.68-69.86-14.68-61.6,0-104.62,35.91-104.62,87.33,0,41.62,27.29,70.68,85.89,91.46,23.72,9.12,39.4,18.23,49.43,28.69,10.49,10.94,15.37,23.78,15.37,40.43,0,36.39-28.56,59.91-72.75,59.91-25.75,0-52.94-7.31-75.26-20.15l-9.06,30.05Z" fill="#fff"/>
            <path d="m2372.26,406.96v68.68h62.25v33.1h-62.25v128.95c0,29.64,8.4,46.44,32.61,46.44,11.36,0,19.76-1.48,25.2-2.96l1.98,32.61c-8.4,3.46-21.74,5.93-38.54,5.93-20.26,0-36.56-6.42-46.94-18.28-12.35-12.85-16.8-34.09-16.8-62.25v-130.43h-37.06v-33.1h37.06v-57.31l42.49-11.36Zm21.25,315.84c-21.13,0-38.14-6.67-49.21-19.28-12.01-12.54-17.61-32.98-17.61-64.34v-127.35h-37.06v-39.28h37.06v-56.59l48.67-13.02v69.61h62.25v39.28h-62.25v125.87c0,30.39,8.83,43.36,29.52,43.36,11.49,0,19.61-1.55,24.39-2.86l3.66-1,2.34,38.6-2.04.84c-9.65,3.97-23.75,6.16-39.71,6.16Zm-97.7-217.15h37.06v133.52c0,29.7,5.06,48.81,15.94,60.11l.1.11c9.86,11.27,25.29,17.22,44.61,17.22,13.84,0,26.54-1.78,35.32-4.91l-1.62-26.66c-5.24,1.13-12.7,2.18-22.34,2.18-32,0-35.7-28.27-35.7-49.53v-132.04h62.25v-26.93h-62.25v-67.74l-36.31,9.71v58.03h-37.06v26.93Z" fill="#fff"/>
            <path d="m2696.86,593.22c0,88.44-61.27,126.98-119.07,126.98-64.72,0-114.63-47.43-114.63-123.02,0-80.04,52.37-126.98,118.58-126.98s115.12,49.9,115.12,123.02Zm-189.72,2.47c0,52.37,30.14,91.9,72.63,91.9s72.63-39.03,72.63-92.89c0-40.51-20.26-91.9-71.64-91.9s-73.62,47.43-73.62,92.89Zm70.65,127.6c-69.31,0-117.71-51.86-117.71-126.11,0-39.06,12.22-72.14,35.35-95.67,21.8-22.18,52.46-34.4,86.32-34.4s64.13,12.13,85.57,35.07c21.35,22.85,32.64,54.33,32.64,91.04,0,41.39-13.44,75.6-38.86,98.93-21.88,20.08-51.46,31.14-83.3,31.14Zm3.95-250c-32.19,0-61.28,11.56-81.91,32.55-21.97,22.35-33.58,53.93-33.58,91.34s11.13,65.91,32.18,87.72c20.06,20.78,48.24,32.22,79.36,32.22s58.39-10.48,79.12-29.51c24.11-22.13,36.86-54.77,36.86-94.38,0-71.74-45.02-119.94-112.03-119.94Zm-1.98,217.39c-21.4,0-40.82-9.76-54.68-27.5-13.57-17.35-21.04-41.32-21.04-67.49,0-47.77,23.72-95.97,76.71-95.97,24.24,0,44.19,11.13,57.69,32.18,10.83,16.88,17.04,39.78,17.04,62.81,0,26.65-7.6,50.99-21.41,68.55-13.91,17.69-33.2,27.43-54.31,27.43Zm.99-184.78c-48.72,0-70.53,45.1-70.53,89.8,0,51.46,29.25,88.81,69.54,88.81,19.17,0,36.74-8.9,49.45-25.07,12.96-16.47,20.09-39.46,20.09-64.73,0-21.88-5.85-43.56-16.06-59.48-8.58-13.38-24.66-29.33-52.49-29.33Z" fill="#fff"/>
            <path d="m2751.7,550.24c0-28.16-.49-52.37-1.98-74.61h38.04l1.48,46.94h1.98c10.87-32.12,37.06-52.37,66.21-52.37,4.94,0,8.4.49,12.35,1.48v41.01c-4.45-.99-8.89-1.48-14.82-1.48-30.63,0-52.37,23.22-58.3,55.83-.99,5.93-1.98,12.85-1.98,20.26v127.47h-42.98v-164.53Zm46.07,167.62h-49.16v-167.62c0-31.05-.61-53.99-1.97-74.4l-.22-3.29h44.34l1.25,39.72c12.8-27.73,37.62-45.15,65.42-45.15,4.9,0,8.57.44,13.1,1.58l2.34.58v47.27l-3.76-.83c-4.45-.99-8.68-1.41-14.15-1.41-13.91,0-26.44,5.12-36.25,14.8-9.58,9.46-16.16,22.78-19.02,38.5-.95,5.69-1.93,12.53-1.93,19.71v130.56Zm-42.99-6.18h36.81v-124.38c0-7.63,1.02-14.78,2.02-20.77,6.46-35.5,30.53-58.41,61.35-58.41,4.36,0,8.11.26,11.73.84v-34.81c-3.01-.61-5.79-.86-9.26-.86-28.11,0-52.95,19.73-63.28,50.27l-.71,2.1h-7.18l-1.48-46.94h-31.76c1.22,19.73,1.77,41.98,1.77,71.52v161.44Z" fill="#fff"/>
            <path d="m2932.53,603.11c.99,58.79,38.54,83,82.02,83,31.13,0,49.9-5.43,66.21-12.35l7.41,31.13c-15.32,6.92-41.5,14.82-79.55,14.82-73.62,0-117.59-48.42-117.59-120.55s42.49-128.95,112.16-128.95c78.06,0,98.82,68.68,98.82,112.65,0,8.89-.99,15.81-1.48,20.26h-167.99Zm127.47-31.13c.49-27.67-11.36-70.65-60.28-70.65-43.97,0-63.24,40.51-66.7,70.65h126.98Zm-51.38,150.82c-36.6,0-67.25-11.82-88.63-34.18-20.96-21.92-32.04-52.86-32.04-89.46s10.89-69.75,30.67-93.5c20.99-25.21,50.23-38.54,84.57-38.54s63.48,14.25,81.26,41.22c18.63,28.26,20.64,61.52,20.64,74.51,0,7.79-.73,14-1.26,18.53-.09.74-.17,1.43-.24,2.06l-.3,2.75h-167.58c1.01,25.25,9.06,44.81,23.96,58.16,13.62,12.21,32.59,18.67,54.88,18.67,32.05,0,50.18-5.82,65-12.11l3.36-1.43,8.85,37.16-2.32,1.05c-15.25,6.89-41.65,15.1-80.82,15.1Zm-5.44-249.51c-32.45,0-60.05,12.56-79.83,36.31-18.86,22.65-29.24,54.45-29.24,89.55s10.49,64.44,30.33,85.19c20.19,21.11,49.29,32.27,84.17,32.27s60.95-7.13,75.95-13.53l-5.98-25.1c-14.82,5.98-33.27,11.2-64.04,11.2-23.83,0-44.23-7-59-20.24-16.84-15.1-25.62-37.24-26.1-65.8l-.05-3.14h168.38c.5-4.32,1.14-10.1,1.14-17.17,0-12.43-1.91-44.25-19.62-71.12-16.82-25.51-42.43-38.45-76.1-38.45Zm59.85,101.78h-133.47l.4-3.44c4.19-36.53,27.39-73.39,69.77-73.39,18.06,0,32.74,5.63,43.64,16.73,18.9,19.24,19.87,48.55,19.72,57.07l-.05,3.03Zm-126.48-6.18h120.35c-.21-10.39-2.51-33.88-17.95-49.6-9.7-9.87-22.9-14.88-39.24-14.88-42.13,0-59.21,39-63.17,64.48Z" fill="#fff"/>
          </g>
          <g>
            <path d="m779.78,641.12c-31.12,88.9-94.26,168.23-151.48,168.23-23.02,0-31.46-22.8-79.78-22.8s-68.16,22.8-91.18,22.8c-79.78,0-170.97-153.98-170.97-273.55s79.78-170.97,148.17-170.97c36.81,0,76.48,22.8,113.98,22.8s65.77-22.8,102.58-22.8,80.47,16.18,109.88,51.63c-38.53,21.88-64.29,62-64.29,107.94,0,53.11,34.42,98.48,83.09,116.71Z" fill="#fff"/>
            <path d="m627.94,307.56c7.93-9.94,14.31-21.25,18.69-33.72,6.35-18.11,8.79-38.34,4.47-57.18-.3-1.3-18.14,2.68-19.76,3.13-9.76,2.72-19.25,6.4-28.31,10.94-39.43,19.74-75.71,58.12-78.42,104.05-.36,6.1-.38,12.68,1.11,18.66.24.94,13.17-.14,14.08-.2,34.76-2.49,66.98-19.18,88.14-45.67Z" fill="#fff"/>
          </g>
        </g>
      </g>
    </g>
  </g>
</svg>