<?xml version="1.0" encoding="UTF-8"?>
<svg id="Layer_2" data-name="Layer 2" xmlns="http://www.w3.org/2000/svg" viewBox="0 0 3754.01 1082.01">
  <g id="_ÎÓÈ_1" data-name="—ÎÓÈ_1">
    <g id="_ÎÓÈ_2" data-name="—ÎÓÈ_2">
      <g>
        <rect x="6.01" y="6.01" width="3742" height="1070" rx="199.18" ry="199.18" fill="none" stroke="#fff" stroke-miterlimit="10" stroke-width="12.01"/>
        <g>
          <g>
            <path d="m304.54,276.47l354.12,193.58-99,96.1-290.54-284.55c8.86-8.83,22.97-11.89,35.42-5.13Z" fill="#0ae577"/>
            <path d="m559.66,566.15l-293.91,285.29c-3.33-4.76-5.34-10.59-5.34-17.11V302.66c0-8.49,3.4-15.81,8.71-21.06l290.54,284.55Z" fill="#40c3ff"/>
            <path d="m790.94,542.34c20.72,11.3,20.72,41.01,0,52.34l-129.75,70.9-101.53-99.43,99-96.1,132.29,72.29Z" fill="#ffc826"/>
            <path d="m661.19,665.58l-356.65,194.94c-14.17,7.75-30.54,2.66-38.78-9.08l293.91-285.29,101.53,99.43Z" fill="#ff3945"/>
          </g>
          <g>
            <path d="m1335.07,674.49c-19.27,6.92-57.31,18.28-102.27,18.28-50.4,0-91.9-12.85-124.51-43.97-28.66-27.67-46.44-72.14-46.44-124.01.49-99.31,68.68-171.94,180.34-171.94,38.54,0,68.68,8.4,83,15.32l-10.37,35.08c-17.79-7.9-40.02-14.33-73.62-14.33-81.03,0-133.89,50.4-133.89,133.89s50.89,134.39,128.46,134.39c28.16,0,47.43-3.95,57.31-8.89v-99.31h-67.69v-34.59h109.69v160.08Zm-102.27,21.37c-53.62,0-95.04-14.66-126.64-44.83-30.13-29.09-47.4-75.1-47.4-126.25.25-50.49,17.33-93.85,49.4-125.41,32.98-32.46,79.33-49.62,134.02-49.62,23.98,0,60.46,4.09,84.35,15.62l2.36,1.14-12.12,40.97-3.22-1.43c-28.05-12.46-53.4-14.06-72.36-14.06-80.68,0-130.81,50.12-130.81,130.81s48.04,131.3,125.37,131.3c31.78,0,47.7-4.94,54.22-7.77v-94.25h-67.69v-40.76h115.86v165.34l-2.04.73c-23.46,8.42-60.43,18.46-103.32,18.46Zm9.39-339.92c-53.04,0-97.89,16.54-129.69,47.84-30.87,30.38-47.32,72.23-47.56,121.02,0,49.47,16.58,93.86,45.5,121.78,30.38,29,70.41,43.11,122.36,43.11,40.77,0,76.11-9.28,99.19-17.37v-154.81h-103.51v28.41h67.69v104.31l-1.71.85c-11.72,5.86-33.11,9.22-58.69,9.22-39.29,0-72.33-12.6-95.53-36.45-23.56-24.21-36.02-59.15-36.02-101.03s12.96-76.26,37.48-100.46c24.21-23.89,58.62-36.52,99.5-36.52,27.69,0,49.96,4.08,71.64,13.2l8.63-29.18c-15.12-6.65-43.91-13.91-79.29-13.91Z" fill="#fff"/>
            <path d="m1618.16,567.77c0,88.44-61.27,126.98-119.07,126.98-64.72,0-114.63-47.43-114.63-123.02,0-80.04,52.37-126.98,118.58-126.98s115.12,49.9,115.12,123.03Zm-189.73,2.47c0,52.37,30.14,91.9,72.63,91.9s72.63-39.03,72.63-92.89c0-40.51-20.26-91.9-71.64-91.9s-73.62,47.43-73.62,92.89Zm70.65,127.59c-69.31,0-117.71-51.86-117.71-126.11,0-39.06,12.22-72.14,35.35-95.67,21.8-22.18,52.46-34.4,86.32-34.4s64.13,12.13,85.57,35.07c21.35,22.85,32.64,54.34,32.64,91.04,0,41.39-13.44,75.6-38.86,98.93-21.88,20.08-51.46,31.14-83.3,31.14Zm3.95-250c-32.19,0-61.28,11.56-81.91,32.55-21.97,22.35-33.58,53.93-33.58,91.34s11.13,65.91,32.18,87.71c20.06,20.78,48.24,32.22,79.36,32.22s58.39-10.48,79.13-29.51c24.11-22.13,36.86-54.77,36.86-94.38,0-71.74-45.02-119.94-112.03-119.94Zm-1.98,217.39c-21.4,0-40.82-9.76-54.68-27.5-13.56-17.35-21.04-41.32-21.04-67.49,0-47.77,23.72-95.97,76.71-95.97,24.24,0,44.19,11.13,57.69,32.18,10.83,16.88,17.04,39.78,17.04,62.81,0,26.65-7.6,50.99-21.41,68.55-13.91,17.69-33.2,27.43-54.31,27.43Zm.99-184.78c-48.72,0-70.53,45.1-70.53,89.8,0,51.46,29.25,88.81,69.54,88.81,19.17,0,36.74-8.9,49.45-25.07,12.96-16.47,20.09-39.46,20.09-64.73,0-21.88-5.85-43.56-16.06-59.48-8.58-13.38-24.66-29.34-52.49-29.34Z" fill="#fff"/>
            <path d="m1889.4,567.77c0,88.44-61.27,126.98-119.07,126.98-64.72,0-114.63-47.43-114.63-123.02,0-80.04,52.37-126.98,118.58-126.98s115.12,49.9,115.12,123.03Zm-189.73,2.47c0,52.37,30.14,91.9,72.63,91.9s72.63-39.03,72.63-92.89c0-40.51-20.26-91.9-71.64-91.9s-73.62,47.43-73.62,92.89Zm70.65,127.59c-69.31,0-117.71-51.86-117.71-126.11,0-39.06,12.22-72.14,35.35-95.67,21.8-22.18,52.46-34.4,86.32-34.4s64.13,12.13,85.57,35.07c21.35,22.85,32.64,54.34,32.64,91.04,0,41.39-13.44,75.6-38.86,98.93-21.88,20.08-51.46,31.14-83.3,31.14Zm3.95-250c-32.19,0-61.28,11.56-81.91,32.55-21.97,22.35-33.58,53.93-33.58,91.34s11.13,65.91,32.17,87.71c20.06,20.78,48.24,32.22,79.36,32.22s58.39-10.48,79.13-29.51c24.11-22.13,36.86-54.77,36.86-94.38,0-71.74-45.02-119.94-112.03-119.94Zm-1.98,217.39c-21.4,0-40.82-9.76-54.68-27.5-13.57-17.35-21.04-41.32-21.04-67.49,0-47.77,23.72-95.97,76.71-95.97,24.24,0,44.19,11.13,57.69,32.18,10.83,16.88,17.04,39.78,17.04,62.81,0,26.65-7.6,50.99-21.41,68.55-13.91,17.69-33.2,27.43-54.31,27.43Zm.99-184.78c-48.72,0-70.53,45.1-70.53,89.8,0,51.46,29.25,88.81,69.54,88.81,19.17,0,36.74-8.9,49.45-25.07,12.96-16.47,20.09-39.46,20.09-64.73,0-21.88-5.85-43.56-16.06-59.48-8.58-13.38-24.66-29.34-52.49-29.34Z" fill="#fff"/>
            <path d="m2150.26,450.18c-.99,17.29-1.98,36.56-1.98,65.71v138.84c0,54.84-10.87,88.44-34.09,109.19-23.22,21.74-56.82,28.66-86.96,28.66s-60.28-6.92-79.55-19.76l10.87-33.1c15.81,9.88,40.51,18.78,70.16,18.78,44.47,0,77.08-23.22,77.08-83.5v-26.68h-.99c-13.34,22.23-39.03,40.02-76.09,40.02-59.29,0-101.78-50.4-101.78-116.6,0-81.03,52.87-126.98,107.71-126.98,41.5,0,64.23,21.74,74.61,41.5h.99l1.98-36.07h38.04Zm-44.96,94.37c0-7.41-.49-13.83-2.47-19.76-7.9-25.2-29.15-45.95-60.77-45.95-41.5,0-71.15,35.08-71.15,90.42,0,46.94,23.72,85.97,70.65,85.97,26.68,0,50.89-16.8,60.28-44.47,2.47-7.41,3.46-15.81,3.46-23.22v-42.98Zm-78.06,251.11c-31.36,0-62.49-7.77-81.26-20.28l-1.95-1.3,12.83-39.08,3.34,2.09c8.81,5.5,33.11,18.31,68.52,18.31,61.15,0,73.99-43.73,73.99-80.41v-18.02c-16.47,22-42.97,34.45-73.99,34.45-29.42,0-56.22-12.27-75.46-34.54-18.96-21.95-29.41-52.19-29.41-85.15,0-38.75,11.8-71.94,34.11-95.98,20.41-21.98,47.65-34.09,76.68-34.09,41.55,0,63.13,21.39,72.98,35.9l1.67-30.46h44.24l-.19,3.26c-1.04,18.17-1.97,36.86-1.97,65.54v138.83c0,55.4-10.83,89.79-35.12,111.49-14.32,13.4-41.43,29.44-89.01,29.44Zm-75.87-24.16c17.79,10.97,47.21,17.98,75.87,17.98,45.56,0,71.29-15.13,84.85-27.82,22.92-20.48,33.11-53.44,33.11-106.94v-138.83c0-27.13.83-45.36,1.8-62.62h-31.85l-1.98,36.07h-5.78l-.87-1.65c-7.81-14.88-27.54-39.85-71.87-39.85-27.3,0-52.93,11.41-72.16,32.12-21.24,22.87-32.46,54.61-32.46,91.77,0,31.47,9.91,60.28,27.91,81.11,18.05,20.9,43.19,32.4,70.79,32.4,31.98,0,58.75-14.04,73.44-38.52l.9-1.5h5.82v29.77c0,29.45-7.67,51.85-22.8,66.57-13.65,13.28-32.95,20.02-57.37,20.02s-49.28-6.25-68.43-17.23l-8.92,27.16Zm90.2-113.19c-23.1,0-42.25-9.2-55.39-26.61-11.83-15.67-18.35-37.85-18.35-62.45,0-55.93,29.83-93.5,74.23-93.5,35.85,0,56.42,24.85,63.72,48.11,2.3,6.89,2.61,14.33,2.61,20.69v42.98c0,8.61-1.28,17.2-3.62,24.2-9.6,28.3-34.41,46.58-63.21,46.58Zm.49-176.39c-40.71,0-68.06,35.09-68.06,87.33,0,23.26,6.07,44.12,17.1,58.73,11.93,15.8,29.38,24.16,50.46,24.16,26.11,0,48.62-16.63,57.35-42.37,2.12-6.37,3.29-14.27,3.29-22.23v-42.98c0-8.31-.69-13.93-2.31-18.79-6.66-21.22-25.33-43.84-57.84-43.84Z" fill="#fff"/>
            <path d="m2220.41,338.51h43.48v350.79h-43.48v-350.79Zm46.57,353.88h-49.65v-356.97h49.65v356.97Zm-43.48-6.18h37.3v-344.62h-37.3v344.62Z" fill="#fff"/>
            <path d="m2361.22,577.65c.99,58.8,38.54,83,82.02,83,31.13,0,49.9-5.43,66.2-12.35l7.41,31.13c-15.32,6.92-41.5,14.82-79.55,14.82-73.62,0-117.59-48.42-117.59-120.56s42.49-128.95,112.16-128.95c78.06,0,98.82,68.68,98.82,112.65,0,8.89-.99,15.81-1.48,20.26h-167.99Zm127.47-31.13c.49-27.67-11.36-70.65-60.28-70.65-43.97,0-63.24,40.51-66.7,70.65h126.98Zm-51.38,150.82c-36.6,0-67.25-11.82-88.63-34.18-20.96-21.93-32.04-52.86-32.04-89.46s10.89-69.75,30.67-93.5c20.99-25.21,50.23-38.54,84.57-38.54s63.48,14.25,81.26,41.22c18.63,28.26,20.64,61.52,20.64,74.52,0,7.8-.73,14.01-1.26,18.55-.09.73-.17,1.42-.24,2.05l-.3,2.75h-167.57c1.01,25.25,9.06,44.81,23.96,58.16,13.62,12.21,32.6,18.67,54.88,18.67,32.05,0,50.18-5.82,65-12.11l3.36-1.43,8.85,37.16-2.32,1.05c-15.25,6.89-41.65,15.1-80.82,15.1Zm-5.44-249.51c-32.45,0-60.05,12.56-79.83,36.31-18.86,22.65-29.24,54.45-29.24,89.55s10.49,64.44,30.33,85.19c20.19,21.11,49.29,32.27,84.17,32.27s60.95-7.13,75.94-13.53l-5.98-25.1c-14.82,5.98-33.26,11.2-64.04,11.2-23.83,0-44.23-7-59-20.24-16.84-15.1-25.62-37.24-26.1-65.8l-.05-3.14h168.38c.51-4.32,1.14-10.1,1.14-17.17,0-12.43-1.91-44.26-19.62-71.12-16.82-25.51-42.43-38.45-76.1-38.45Zm59.85,101.78h-133.47l.4-3.44c4.19-36.53,27.39-73.39,69.77-73.39,18.06,0,32.74,5.63,43.64,16.73,18.9,19.24,19.87,48.55,19.72,57.07l-.05,3.03Zm-126.48-6.18h120.35c-.21-10.39-2.5-33.88-17.95-49.6-9.7-9.87-22.9-14.88-39.24-14.88-42.13,0-59.21,39-63.17,64.48Z" fill="#fff"/>
            <path d="m2690.75,360.25c20.75-3.46,47.92-6.42,82.51-6.42,42.49,0,73.62,9.88,93.38,27.67,18.28,15.81,29.15,40.02,29.15,69.66s-8.89,53.85-25.69,71.15c-22.73,24.21-59.78,36.56-101.78,36.56-12.85,0-24.7-.49-34.59-2.96v133.4h-42.98v-329.05Zm42.98,160.57c9.39,2.47,21.25,3.46,35.57,3.46,51.88,0,83.5-25.2,83.5-71.15s-31.13-65.22-78.56-65.22c-18.78,0-33.1,1.48-40.51,3.46v129.45Zm3.09,171.57h-49.16v-334.76l2.58-.43c25.74-4.29,53.67-6.47,83.02-6.47,42.35,0,74.46,9.58,95.45,28.46,19.44,16.81,30.17,42.38,30.17,71.96s-8.94,55.15-26.57,73.3c-22.69,24.17-59.63,37.5-104,37.5-10.6,0-21.66-.29-31.5-2.21v132.64Zm-42.98-6.18h36.81v-134.27l3.84.96c10.12,2.53,22.79,2.87,33.84,2.87,42.64,0,77.98-12.64,99.53-35.59,16.5-16.99,24.86-40.2,24.86-69.03s-9.97-51.67-28.08-67.33c-19.86-17.87-50.58-26.92-91.36-26.92-28.03,0-54.73,2-79.42,5.96v323.34Zm75.47-158.85c-15.58,0-27.13-1.13-36.36-3.56l-2.3-.61v-134.2l2.29-.61c8.37-2.23,23.81-3.56,41.31-3.56,51.89,0,81.65,24.9,81.65,68.31,0,23.28-8.09,42.36-23.4,55.17-14.9,12.47-36.75,19.06-63.19,19.06Zm-32.49-8.97c8.29,1.88,18.95,2.79,32.49,2.79,51.1,0,80.41-24.81,80.41-68.06,0-40.06-26.8-62.13-75.47-62.13-15.46,0-29.15,1.04-37.43,2.81v124.59Z" fill="#fff"/>
            <path d="m2949.64,338.51h43.48v350.79h-43.48v-350.79Zm46.57,353.88h-49.65v-356.97h49.65v356.97Zm-43.48-6.18h37.3v-344.62h-37.3v344.62Z" fill="#fff"/>
            <path d="m3198.65,689.31l-3.46-30.14h-1.48c-13.34,18.77-39.03,35.57-73.12,35.57-48.42,0-73.12-34.09-73.12-68.68,0-57.81,51.38-89.43,143.78-88.93v-4.94c0-19.76-5.43-55.34-54.35-55.34-22.23,0-45.45,6.92-62.25,17.79l-9.88-28.66c19.76-12.85,48.42-21.25,78.56-21.25,73.12,0,90.91,49.9,90.91,97.83v89.43c0,20.75.99,41.01,3.95,57.31h-39.53Zm-6.42-122.04c-47.43-.99-101.29,7.41-101.29,53.85,0,28.16,18.77,41.5,41.01,41.5,31.13,0,50.89-19.76,57.81-40.02,1.48-4.45,2.47-9.39,2.47-13.83v-41.5Zm-71.64,130.56c-23.36,0-43.05-7.72-56.96-22.33-12.42-13.04-19.25-30.6-19.25-49.44,0-22.52,7.53-41.43,22.38-56.2,23.44-23.31,65.38-35.68,121.4-35.83v-1.85c0-34.67-17.25-52.25-51.26-52.25-21.2,0-43.84,6.46-60.58,17.29l-3.31,2.14-11.96-34.67,2.02-1.31c21.26-13.82,50.51-21.74,80.24-21.74,34.29,0,59.64,10.83,75.36,32.2,12.37,16.81,18.63,39.92,18.63,68.72v89.43c0,23.74,1.28,42.31,3.9,56.76l.66,3.64h-45.98l-3.09-26.96c-16.75,20.38-43.31,32.4-72.22,32.4Zm68.56-157.62c-54.86,0-95.64,11.75-118.04,34.03-13.64,13.57-20.55,31-20.55,51.82,0,31.59,21.92,65.59,70.04,65.59,28.96,0,55.36-12.81,70.61-34.27l.92-1.3h5.83l3.46,30.14h33.11c-2.27-14.24-3.38-32.04-3.38-54.23v-89.43c0-27.45-5.87-49.33-17.43-65.06-14.49-19.7-38.17-29.68-70.39-29.68-27.21,0-54.97,7.25-74.84,19.46l7.83,22.7c17.29-10.2,39.63-16.22,60.59-16.22,22.47,0,38.65,7.28,48.1,21.65,6.2,9.42,9.34,21.8,9.34,36.78v8.05l-3.1-.02c-.69,0-1.39,0-2.07,0Zm-57.2,125.5c-26.79,0-44.1-17.5-44.1-44.59,0-13.9,4.63-25.48,13.75-34.42,16.19-15.86,46.69-23.44,90.68-22.52l3.02.06v44.53c0,4.47-.93,9.73-2.63,14.81-6.64,19.45-26.52,42.13-60.73,42.13Zm53.24-95.43c-38.49,0-65.14,7-79.26,20.83-7.9,7.73-11.9,17.83-11.9,30.01,0,18.57,9.96,38.42,37.92,38.42,30.95,0,48.91-20.43,54.88-37.93,1.49-4.45,2.31-9.02,2.31-12.84v-38.46c-1.33-.02-2.65-.02-3.95-.02Z" fill="#fff"/>
            <path d="m3316.23,450.18l52.37,141.31c5.43,15.81,11.36,34.59,15.32,48.91h.99c4.45-14.33,9.39-32.61,15.32-49.9l47.43-140.32h45.95l-65.22,170.46c-31.13,82.02-52.37,124.01-82.02,149.71-21.24,18.77-42.49,26.19-53.36,28.16l-10.87-36.56c10.87-3.46,25.2-10.37,38.04-21.24,11.86-9.39,26.68-26.19,36.56-48.42,1.98-4.45,3.46-7.91,3.46-10.38s-.99-5.93-2.96-11.36l-88.44-220.36h47.43Zm-25.39,351.86l-12.52-42.12,2.89-.92c6.06-1.93,21.78-7.8,36.99-20.66l.08-.06c14.16-11.21,27.49-28.87,35.66-47.25,1.5-3.37,3.19-7.19,3.19-9.12s-.8-4.86-2.76-10.26l-90.12-224.55h54.15l53.12,143.32c4.63,13.47,9.36,28.31,12.99,40.72.73-2.45,1.47-4.98,2.24-7.58,3.12-10.61,6.66-22.64,10.58-34.06l48.14-142.4h52.65l-66.82,174.65c-29.01,76.45-50.81,123.15-82.88,150.94-24.98,22.07-48.28,27.68-54.83,28.87l-2.72.5Zm-4.89-38.12l9.21,30.99c12.74-2.94,31.54-11.31,49.16-26.88,31.1-26.95,52.52-72.98,81.18-148.49l63.62-166.27h-39.25l-46.72,138.22c-3.87,11.3-7.39,23.26-10.5,33.81-1.68,5.69-3.26,11.07-4.79,16.02l-.67,2.17h-5.62l-.62-2.27c-3.74-13.54-9.58-32.22-15.26-48.73l-51.6-139.22h-40.72l86.78,216.22c2.3,6.32,3.15,9.68,3.15,12.42,0,3.02-1.47,6.56-3.72,11.63-12.31,27.7-30.25,43.86-37.43,49.56-10.5,8.87-23.54,16.36-36.19,20.83Z" fill="#fff"/>
          </g>
        </g>
      </g>
    </g>
  </g>
</svg>